<svg width="539" height="76" viewBox="0 0 539 76" fill="none" xmlns="http://www.w3.org/2000/svg">
<path d="M259.392 21.648C264 21.648 267.563 23.0347 270.08 25.808C272.64 28.5813 273.92 32.336 273.92 37.072V58H259.776V38.864C259.776 37.328 259.307 36.1333 258.368 35.28C257.472 34.384 256.256 33.936 254.72 33.936C253.141 33.936 251.904 34.384 251.008 35.28C250.112 36.1333 249.664 37.328 249.664 38.864V58H235.52V38.864C235.52 37.328 235.051 36.1333 234.112 35.28C233.216 34.384 232 33.936 230.464 33.936C228.885 33.936 227.648 34.384 226.752 35.28C225.856 36.1333 225.408 37.328 225.408 38.864V58H211.2V21.904H225.408V26.768C226.432 25.232 227.819 23.9947 229.568 23.056C231.36 22.1173 233.451 21.648 235.84 21.648C238.443 21.648 240.747 22.224 242.752 23.376C244.757 24.4853 246.357 26.064 247.552 28.112C248.875 26.2347 250.56 24.6987 252.608 23.504C254.656 22.2667 256.917 21.648 259.392 21.648Z" fill="white"/>
<path d="M297.227 58.448C293.6 58.448 290.336 57.7013 287.435 56.208C284.534 54.7147 282.251 52.5813 280.587 49.808C278.966 46.992 278.155 43.7067 278.155 39.952C278.155 36.1973 278.966 32.9333 280.587 30.16C282.251 27.344 284.534 25.1893 287.435 23.696C290.336 22.2027 293.6 21.456 297.227 21.456C300.854 21.456 304.118 22.2027 307.019 23.696C309.92 25.1893 312.182 27.344 313.803 30.16C315.467 32.9333 316.299 36.1973 316.299 39.952C316.299 43.7067 315.467 46.992 313.803 49.808C312.182 52.5813 309.92 54.7147 307.019 56.208C304.118 57.7013 300.854 58.448 297.227 58.448ZM297.227 46.16C298.55 46.16 299.659 45.648 300.555 44.624C301.451 43.5573 301.899 42 301.899 39.952C301.899 37.904 301.451 36.368 300.555 35.344C299.659 34.2773 298.55 33.744 297.227 33.744C295.904 33.744 294.795 34.2773 293.899 35.344C293.003 36.368 292.555 37.904 292.555 39.952C292.555 42 292.982 43.5573 293.835 44.624C294.731 45.648 295.862 46.16 297.227 46.16Z" fill="white"/>
<path d="M334.97 28.56C336.421 26.4693 338.192 24.8053 340.282 23.568C342.373 22.288 344.549 21.648 346.81 21.648V36.816H342.778C340.09 36.816 338.106 37.2853 336.826 38.224C335.589 39.1627 334.97 40.8267 334.97 43.216V58H320.762V21.904H334.97V28.56Z" fill="white"/>
<path d="M385.581 39.632C385.581 40.6133 385.517 41.552 385.389 42.448H362.541C362.755 45.5627 364.056 47.12 366.445 47.12C367.981 47.12 369.091 46.416 369.773 45.008H384.813C384.301 47.568 383.213 49.872 381.549 51.92C379.928 53.9253 377.859 55.5253 375.341 56.72C372.867 57.872 370.136 58.448 367.149 58.448C363.565 58.448 360.365 57.7013 357.549 56.208C354.776 54.7147 352.6 52.5813 351.021 49.808C349.485 46.992 348.717 43.7067 348.717 39.952C348.717 36.1973 349.485 32.9333 351.021 30.16C352.6 27.344 354.776 25.1893 357.549 23.696C360.365 22.2027 363.565 21.456 367.149 21.456C370.733 21.456 373.912 22.2027 376.685 23.696C379.501 25.1467 381.677 27.2373 383.213 29.968C384.792 32.6987 385.581 35.92 385.581 39.632ZM371.181 36.24C371.181 35.0453 370.797 34.1493 370.029 33.552C369.261 32.912 368.301 32.592 367.149 32.592C364.632 32.592 363.16 33.808 362.733 36.24H371.181Z" fill="white"/>
<path d="M415.355 21.648C419.494 21.648 422.715 23.0347 425.019 25.808C427.366 28.5813 428.539 32.336 428.539 37.072V58H414.395V38.864C414.395 37.1573 413.926 35.8133 412.987 34.832C412.091 33.808 410.875 33.296 409.339 33.296C407.76 33.296 406.523 33.808 405.627 34.832C404.731 35.8133 404.283 37.1573 404.283 38.864V58H390.075V21.904H404.283V27.408C405.392 25.7013 406.864 24.3147 408.699 23.248C410.576 22.1813 412.795 21.648 415.355 21.648Z" fill="white"/>
<path d="M451.852 58.448C448.225 58.448 444.961 57.7013 442.06 56.208C439.159 54.7147 436.876 52.5813 435.212 49.808C433.591 46.992 432.78 43.7067 432.78 39.952C432.78 36.1973 433.591 32.9333 435.212 30.16C436.876 27.344 439.159 25.1893 442.06 23.696C444.961 22.2027 448.225 21.456 451.852 21.456C455.479 21.456 458.743 22.2027 461.644 23.696C464.545 25.1893 466.807 27.344 468.428 30.16C470.092 32.9333 470.924 36.1973 470.924 39.952C470.924 43.7067 470.092 46.992 468.428 49.808C466.807 52.5813 464.545 54.7147 461.644 56.208C458.743 57.7013 455.479 58.448 451.852 58.448ZM451.852 46.16C453.175 46.16 454.284 45.648 455.18 44.624C456.076 43.5573 456.524 42 456.524 39.952C456.524 37.904 456.076 36.368 455.18 35.344C454.284 34.2773 453.175 33.744 451.852 33.744C450.529 33.744 449.42 34.2773 448.524 35.344C447.628 36.368 447.18 37.904 447.18 39.952C447.18 42 447.607 43.5573 448.46 44.624C449.356 45.648 450.487 46.16 451.852 46.16Z" fill="white"/>
<path d="M488.891 72.656C484.795 68.7733 481.553 63.6533 479.163 57.296C476.817 50.9387 475.643 44.0693 475.643 36.688C475.643 29.3067 476.817 22.4373 479.163 16.08C481.553 9.72267 484.795 4.60267 488.891 0.720001H502.587V2.064C498.449 6.416 495.185 11.664 492.795 17.808C490.406 23.9093 489.211 30.2027 489.211 36.688C489.211 43.216 490.406 49.552 492.795 55.696C495.185 61.7973 498.449 67.024 502.587 71.376V72.656H488.891Z" fill="white"/>
<path d="M511.919 72.656V71.376C516.058 67.024 519.322 61.7973 521.711 55.696C524.101 49.552 525.295 43.216 525.295 36.688C525.295 30.2027 524.101 23.9093 521.711 17.808C519.322 11.664 516.058 6.416 511.919 2.064V0.720001H525.615C529.711 4.60267 532.933 9.72267 535.279 16.08C537.669 22.4373 538.863 29.3067 538.863 36.688C538.863 44.0693 537.669 50.9387 535.279 57.296C532.933 63.6533 529.711 68.7733 525.615 72.656H511.919Z" fill="white"/>
<path d="M44.968 21.904L21.864 75.28H6.31199L15.4 56.208L0.359985 21.904H16.168L22.952 40.208L29.288 21.904H44.968Z" fill="white"/>
<path d="M63.5765 58.448C60.1632 58.448 57.1338 57.8933 54.4885 56.784C51.8858 55.6747 49.8165 54.1387 48.2805 52.176C46.7445 50.2134 45.8698 47.9947 45.6565 45.52H59.2885C59.4592 46.5867 59.9072 47.376 60.6325 47.888C61.4005 48.4 62.3605 48.656 63.5125 48.656C64.2378 48.656 64.8138 48.5067 65.2405 48.208C65.6672 47.8667 65.8805 47.4613 65.8805 46.992C65.8805 46.1813 65.4325 45.6053 64.5365 45.264C63.6405 44.9227 62.1258 44.5387 59.9925 44.112C57.3898 43.6 55.2352 43.0453 53.5285 42.448C51.8645 41.8507 50.3925 40.8267 49.1125 39.376C47.8752 37.9253 47.2565 35.92 47.2565 33.36C47.2565 31.1413 47.8325 29.136 48.9845 27.344C50.1792 25.5093 51.9285 24.08 54.2325 23.056C56.5365 21.9893 59.3312 21.456 62.6165 21.456C67.4805 21.456 71.2778 22.6507 74.0085 25.04C76.7818 27.4293 78.4458 30.544 79.0005 34.384H66.3925C66.1792 33.4027 65.7312 32.656 65.0485 32.144C64.3658 31.5893 63.4485 31.312 62.2965 31.312C61.5712 31.312 61.0165 31.4613 60.6325 31.76C60.2485 32.016 60.0565 32.4213 60.0565 32.976C60.0565 33.7013 60.5045 34.256 61.4005 34.64C62.2965 34.9813 63.7258 35.344 65.6885 35.728C68.2912 36.24 70.4885 36.816 72.2805 37.456C74.0725 38.096 75.6298 39.2053 76.9525 40.784C78.2751 42.32 78.9365 44.4533 78.9365 47.184C78.9365 49.3173 78.3178 51.2373 77.0805 52.944C75.8432 54.6507 74.0511 55.9947 71.7045 56.976C69.4005 57.9573 66.6912 58.448 63.5765 58.448Z" fill="white"/>
<path d="M98.783 28.56C100.234 26.4693 102.004 24.8053 104.095 23.568C106.186 22.288 108.362 21.648 110.623 21.648V36.816H106.591C103.903 36.816 101.919 37.2853 100.639 38.224C99.4017 39.1627 98.783 40.8267 98.783 43.216V58H84.575V21.904H98.783V28.56Z" fill="white"/>
<path d="M112.53 39.952C112.53 36.1547 113.17 32.8693 114.45 30.096C115.773 27.28 117.565 25.1467 119.826 23.696C122.087 22.2027 124.626 21.456 127.442 21.456C129.789 21.456 131.815 21.9467 133.522 22.928C135.229 23.8667 136.53 25.168 137.426 26.832V21.904H151.57V58H137.426V53.072C136.53 54.736 135.229 56.0587 133.522 57.04C131.815 57.9787 129.789 58.448 127.442 58.448C124.626 58.448 122.087 57.7227 119.826 56.272C117.565 54.7787 115.773 52.6454 114.45 49.872C113.17 47.056 112.53 43.7493 112.53 39.952ZM137.426 39.952C137.426 38.032 136.935 36.5387 135.954 35.472C134.973 34.4053 133.714 33.872 132.178 33.872C130.642 33.872 129.383 34.4053 128.402 35.472C127.421 36.5387 126.93 38.032 126.93 39.952C126.93 41.872 127.421 43.3653 128.402 44.432C129.383 45.4987 130.642 46.032 132.178 46.032C133.714 46.032 134.973 45.4987 135.954 44.432C136.935 43.3653 137.426 41.872 137.426 39.952Z" fill="white"/>
<path d="M192.894 39.632C192.894 40.6133 192.83 41.552 192.702 42.448H169.854C170.067 45.5627 171.369 47.12 173.758 47.12C175.294 47.12 176.403 46.416 177.086 45.008H192.126C191.614 47.568 190.526 49.872 188.862 51.92C187.241 53.9253 185.171 55.5253 182.654 56.72C180.179 57.872 177.449 58.448 174.462 58.448C170.878 58.448 167.678 57.7013 164.862 56.208C162.089 54.7147 159.913 52.5813 158.334 49.808C156.798 46.992 156.03 43.7067 156.03 39.952C156.03 36.1973 156.798 32.9333 158.334 30.16C159.913 27.344 162.089 25.1893 164.862 23.696C167.678 22.2027 170.878 21.456 174.462 21.456C178.046 21.456 181.225 22.2027 183.998 23.696C186.814 25.1467 188.99 27.2373 190.526 29.968C192.105 32.6987 192.894 35.92 192.894 39.632ZM178.494 36.24C178.494 35.0453 178.11 34.1493 177.342 33.552C176.574 32.912 175.614 32.592 174.462 32.592C171.945 32.592 170.473 33.808 170.046 36.24H178.494Z" fill="white"/>
<path d="M211.595 10.64V58H197.387V10.64H211.595Z" fill="white"/>
</svg>
